# xmcd
#
# Track frame offsets:
#	150
#	28193
#	49033
#	72705
#	96222
#	115713
#	140514
#	164017
#	190792
#	220985
#	243503
#
# Disc length: 3637 seconds
#
# Revision: 0
# Processed by: cddbd v1.5.2PL0 Copyright (c) Steve Scherf et al.
# Submitted via: EasyCDDAExtractor 16.0.9.1
#
DISCID=a60e330b
DTITLE=Various Artist - ASIACD262 - Tôi Chưa Có Mùa Xuân
DYEAR=2008
DGENRE=Pop
TTITLE0=Băng Tâm and Đan Nguyên - Nếu Xuân Này Vắng Anh and Tôi Chưa Có Mùa Xuân
TTITLE1=Phương Hoài Tâm, Phương Hồng Quế, Phương Hồng Ngọc - Ly Rượu Mừng and Xu
TTITLE1=ân Miền Nam
TTITLE2=Thanh Thúy - Cánh Thiệp Đầu Xuân
TTITLE3=Băng Tâm, Y Phụng, Nguyễn Hồng Nhung, Hồ Hoàng Yến, Mỹ Huyền - Gái Xuâ
TTITLE3=n, Ca Khúc Mừng Xuân, Xuân Họp Mặt
TTITLE4=Duy Khánh and Đặng Thế Luân - Xuân Này Con Không Về
TTITLE5=Y Phụng and Thiên Trang - Đón Xuân Này Nhớ Xuân Xưa and Đan Áo Mùa Xuân 
TTITLE6=Lệ Thu - Thư Xuân Hải Ngoại
TTITLE7=Ngọc Minh, Tuấn Vũ, Thùy Dương - Mùa Xuân Đầu Tiên and Đám Cưới Đầu Xuân
TTITLE8=Minh Hiếu and Lâm Thúy Vân - Tôi Đi Tìm Lại Một Mùa Xuân
TTITLE9=Philip Huy and Mỹ Huyền - Đồn Vắng Chiều Xuân and Phiên Gác Đêm Xuân
TTITLE10=Ngọc Huyền, Tường Nguyên, Tường Khuê - Chuyện Buồn Ngày Xuân and Xuân N
TTITLE10=ày Con Về Mẹ Ở Đâu
EXTD=
EXTT0=
EXTT1=
EXTT2=
EXTT3=
EXTT4=
EXTT5=
EXTT6=
EXTT7=
EXTT8=
EXTT9=
EXTT10=
PLAYORDER=
